<mxfile host="Electron" modified="2024-03-01T11:22:23.938Z" agent="Mozilla/5.0 (Windows NT 10.0; Win64; x64) AppleWebKit/537.36 (KHTML, like Gecko) draw.io/23.1.5 Chrome/120.0.6099.109 Electron/28.1.0 Safari/537.36" etag="_T4Jm-58gQo7jPiUmBuH" version="23.1.5" type="device">
  <diagram name="Page-1" id="WiZo5eUoQDJ2jnl1z2Iy">
    <mxGraphModel dx="1434" dy="854" grid="1" gridSize="10" guides="1" tooltips="1" connect="1" arrows="1" fold="1" page="1" pageScale="1" pageWidth="850" pageHeight="1100" math="0" shadow="0">
      <root>
        <mxCell id="0" />
        <mxCell id="1" parent="0" />
        <mxCell id="Vcil6UmKlfeJOnZB3HZZ-1" value=": User" style="shape=umlLifeline;perimeter=lifelinePerimeter;whiteSpace=wrap;html=1;container=1;dropTarget=0;collapsible=0;recursiveResize=0;outlineConnect=0;portConstraint=eastwest;newEdgeStyle={&quot;curved&quot;:0,&quot;rounded&quot;:0};strokeWidth=3;fontStyle=0;fontSize=20;fillColor=#b0e3e6;strokeColor=#0e8088;" vertex="1" parent="1">
          <mxGeometry x="190" y="70" width="100" height="450" as="geometry" />
        </mxCell>
        <mxCell id="Vcil6UmKlfeJOnZB3HZZ-2" value="" style="html=1;points=[[0,0,0,0,5],[0,1,0,0,-5],[1,0,0,0,5],[1,1,0,0,-5]];perimeter=orthogonalPerimeter;outlineConnect=0;targetShapes=umlLifeline;portConstraint=eastwest;newEdgeStyle={&quot;curved&quot;:0,&quot;rounded&quot;:0};strokeWidth=3;fillColor=#cdeb8b;strokeColor=#36393d;" vertex="1" parent="Vcil6UmKlfeJOnZB3HZZ-1">
          <mxGeometry x="42.5" y="70" width="15" height="310" as="geometry" />
        </mxCell>
        <mxCell id="Vcil6UmKlfeJOnZB3HZZ-4" value=": Draw io" style="shape=umlLifeline;perimeter=lifelinePerimeter;whiteSpace=wrap;html=1;container=1;dropTarget=0;collapsible=0;recursiveResize=0;outlineConnect=0;portConstraint=eastwest;newEdgeStyle={&quot;curved&quot;:0,&quot;rounded&quot;:0};strokeWidth=3;fontStyle=0;fontSize=20;fillColor=#b0e3e6;strokeColor=#0e8088;" vertex="1" parent="1">
          <mxGeometry x="560" y="70" width="100" height="450" as="geometry" />
        </mxCell>
        <mxCell id="Vcil6UmKlfeJOnZB3HZZ-5" value="" style="html=1;points=[[0,0,0,0,5],[0,1,0,0,-5],[1,0,0,0,5],[1,1,0,0,-5]];perimeter=orthogonalPerimeter;outlineConnect=0;targetShapes=umlLifeline;portConstraint=eastwest;newEdgeStyle={&quot;curved&quot;:0,&quot;rounded&quot;:0};strokeWidth=3;fillColor=#cdeb8b;strokeColor=#36393d;" vertex="1" parent="Vcil6UmKlfeJOnZB3HZZ-4">
          <mxGeometry x="42.5" y="110" width="15" height="230" as="geometry" />
        </mxCell>
        <mxCell id="Vcil6UmKlfeJOnZB3HZZ-6" style="edgeStyle=orthogonalEdgeStyle;rounded=0;orthogonalLoop=1;jettySize=auto;html=1;curved=0;strokeWidth=3;" edge="1" parent="1" source="Vcil6UmKlfeJOnZB3HZZ-2" target="Vcil6UmKlfeJOnZB3HZZ-5">
          <mxGeometry relative="1" as="geometry">
            <Array as="points">
              <mxPoint x="340" y="180" />
              <mxPoint x="340" y="180" />
            </Array>
          </mxGeometry>
        </mxCell>
        <mxCell id="Vcil6UmKlfeJOnZB3HZZ-7" value="Ceate Diagram" style="text;html=1;align=center;verticalAlign=middle;whiteSpace=wrap;rounded=0;fontSize=16;" vertex="1" parent="1">
          <mxGeometry x="361" y="146" width="128" height="30" as="geometry" />
        </mxCell>
        <mxCell id="Vcil6UmKlfeJOnZB3HZZ-8" style="edgeStyle=orthogonalEdgeStyle;rounded=0;orthogonalLoop=1;jettySize=auto;html=1;curved=0;strokeWidth=3;" edge="1" parent="1" source="Vcil6UmKlfeJOnZB3HZZ-5" target="Vcil6UmKlfeJOnZB3HZZ-2">
          <mxGeometry relative="1" as="geometry">
            <Array as="points">
              <mxPoint x="340" y="250" />
              <mxPoint x="340" y="250" />
            </Array>
          </mxGeometry>
        </mxCell>
        <mxCell id="Vcil6UmKlfeJOnZB3HZZ-9" value="Display Diagram" style="text;html=1;align=center;verticalAlign=middle;whiteSpace=wrap;rounded=0;fontSize=16;" vertex="1" parent="1">
          <mxGeometry x="361" y="220" width="128" height="30" as="geometry" />
        </mxCell>
        <mxCell id="Vcil6UmKlfeJOnZB3HZZ-10" style="edgeStyle=orthogonalEdgeStyle;rounded=0;orthogonalLoop=1;jettySize=auto;html=1;curved=0;strokeWidth=3;" edge="1" parent="1">
          <mxGeometry relative="1" as="geometry">
            <mxPoint x="248" y="334" as="sourcePoint" />
            <mxPoint x="603" y="334" as="targetPoint" />
            <Array as="points">
              <mxPoint x="340" y="334" />
              <mxPoint x="340" y="334" />
            </Array>
          </mxGeometry>
        </mxCell>
        <mxCell id="Vcil6UmKlfeJOnZB3HZZ-11" value="Edit Diagram" style="text;html=1;align=center;verticalAlign=middle;whiteSpace=wrap;rounded=0;fontSize=16;" vertex="1" parent="1">
          <mxGeometry x="361" y="300" width="128" height="30" as="geometry" />
        </mxCell>
        <mxCell id="Vcil6UmKlfeJOnZB3HZZ-12" style="edgeStyle=orthogonalEdgeStyle;rounded=0;orthogonalLoop=1;jettySize=auto;html=1;curved=0;strokeWidth=3;" edge="1" parent="1">
          <mxGeometry relative="1" as="geometry">
            <mxPoint x="603" y="410" as="sourcePoint" />
            <mxPoint x="248" y="410" as="targetPoint" />
            <Array as="points">
              <mxPoint x="340" y="410" />
              <mxPoint x="340" y="410" />
            </Array>
          </mxGeometry>
        </mxCell>
        <mxCell id="Vcil6UmKlfeJOnZB3HZZ-13" value="Export Diagram" style="text;html=1;align=center;verticalAlign=middle;whiteSpace=wrap;rounded=0;fontSize=16;" vertex="1" parent="1">
          <mxGeometry x="361" y="380" width="128" height="30" as="geometry" />
        </mxCell>
      </root>
    </mxGraphModel>
  </diagram>
</mxfile>
